<?xml version="1.0" encoding="UTF-8"?>
<svg width="187px" height="149px" viewBox="0 0 187 149" version="1.1" xmlns="http://www.w3.org/2000/svg" xmlns:xlink="http://www.w3.org/1999/xlink">
    <!-- Generator: Sketch 41.2 (35397) - http://www.bohemiancoding.com/sketch -->
    <title>The Things Network Logo</title>
    <desc>Created with Sketch.</desc>
    <defs>
        <filter x="-50%" y="-50%" width="200%" height="200%" filterUnits="objectBoundingBox" id="filter-1">
            <feOffset dx="6" dy="7" in="SourceAlpha" result="shadowOffsetOuter1"></feOffset>
            <feGaussianBlur stdDeviation="3" in="shadowOffsetOuter1" result="shadowBlurOuter1"></feGaussianBlur>
            <feColorMatrix values="0 0 0 0 0   0 0 0 0 0   0 0 0 0 0  0 0 0 0.5 0" type="matrix" in="shadowBlurOuter1" result="shadowMatrixOuter1"></feColorMatrix>
            <feMerge>
                <feMergeNode in="shadowMatrixOuter1"></feMergeNode>
                <feMergeNode in="SourceGraphic"></feMergeNode>
            </feMerge>
        </filter>
    </defs>
    <g id="Page-1" stroke="none" stroke-width="1" fill="none" fill-rule="evenodd">
        <g id="Artboard" transform="translate(-11.000000, -30.000000)">
            <g id="The-Things-Network-Logo" filter="url(#filter-1)" transform="translate(11.000000, 30.000000)">
                <g id="Layer_1">
                    <g id="Group" transform="translate(2.058140, 122.094160)" fill="#333333">
                        <polygon id="Shape" points="3.1462093 13.876893 0.059 13.876893 0.059 0.329928601 3.1462093 0.329928601 8.57741085 8.78963631 8.57741085 8.78963631 8.57741085 0.329928601 11.6646202 0.329928601 11.6646202 13.876893 8.57741085 13.876893 3.1462093 5.41718526 3.1462093 5.41718526"></polygon>
                        <polygon id="Shape" points="35.4475659 2.95929721 30.7595814 2.95929721 30.7595814 5.58866583 35.2188837 5.58866583 35.2188837 8.33235481 30.7595814 8.33235481 30.7595814 11.0760438 35.4475659 11.0760438 35.4475659 13.8197328 27.6723721 13.8197328 27.6723721 0.272768413 35.4475659 0.272768413"></polygon>
                        <polygon id="Shape" points="50.311907 0.272768413 59.8593876 0.272768413 59.8593876 3.0164574 56.6578372 3.0164574 56.6578372 13.8197328 53.5706279 13.8197328 53.5706279 3.0164574 50.3690775 3.0164574"></polygon>
                        <polygon id="Shape" points="83.2993101 6.27458807 81.1268295 13.876893 77.6965969 13.876893 73.8661705 0.329928601 77.2392326 0.329928601 79.5260543 9.70419931 79.5832248 9.70419931 82.0415581 0.329928601 84.3283798 0.329928601 86.7867132 9.70419931 87.0153953 9.70419931 89.3022171 0.329928601 92.7324496 0.329928601 88.9020233 13.876893 85.4717907 13.876893"></polygon>
                        <path d="M113.199504,0.0441276645 C116.97276,0.0441276645 120.059969,3.13077778 120.059969,7.01767051 C120.059969,11.0188836 117.144271,14.0483735 113.199504,14.0483735 C109.140395,14.0483735 106.339039,10.9617234 106.339039,7.01767051 C106.339039,3.07361759 109.426248,0.0441276645 113.199504,0.0441276645 Z M113.199504,11.0760438 C115.657837,11.0760438 116.686907,9.07543725 116.686907,7.01767051 C116.686907,5.07422414 115.543496,2.95929721 113.199504,2.95929721 C110.798341,2.95929721 109.712101,4.95990377 109.712101,7.01767051 C109.712101,9.07543725 110.684,11.0760438 113.199504,11.0760438 Z" id="Shape"></path>
                        <path d="M140.241171,0.272768413 C142.756674,0.272768413 144.700473,1.64461291 144.700473,4.33114171 C144.700473,6.33174826 143.557062,7.76075294 141.899116,8.21803444 L146.587101,13.876893 L142.699504,13.876893 L138.583225,8.50383538 L138.583225,13.876893 L135.496016,13.876893 L135.496016,0.329928601 L140.241171,0.272768413 L140.241171,0.272768413 Z M138.811907,6.33174826 C140.012488,6.33174826 141.327411,6.27458807 141.327411,4.50262227 C141.327411,2.73065646 139.955318,2.67349628 138.811907,2.67349628 L138.468884,2.67349628 L138.468884,6.33037642 L138.811907,6.33174826 Z" id="Shape"></path>
                        <polygon id="Shape" points="169.226636 13.876893 164.195628 8.10371406 164.195628 13.876893 161.108419 13.876893 161.108419 0.329928601 164.195628 0.329928601 164.195628 5.93162695 168.883612 0.329928601 172.656868 0.329928601 167.111326 6.73186957 173.400085 13.876893"></polygon>
                    </g>
                    <path d="M160.19369,62.9205623 C160.593884,67.8363384 159.050279,72.4663135 155.905899,76.0102451 C152.532837,79.7828175 147.501829,81.8405842 141.841946,81.8405842 L19.3254729,81.8405842 L19.3254729,81.8405842 L19.1539612,81.8405842 L19.0967907,81.8405842 L18.9824496,81.8405842 L18.9824496,81.8405842 C14.0086124,81.783424 9.32062791,79.8399777 5.83322481,76.3532063 C2.11713953,72.6949543 0.116170543,67.7791782 0.059,62.5776011 L0.059,62.5776011 C0.059,52.9175295 6.6336124,45.0865838 15.6093876,43.600419 C16.809969,35.5408326 23.8419457,28.967411 32.5318682,27.5955666 C33.0464031,24.3945961 34.5900078,21.307946 37.0483411,18.7928977 C40.5929147,15.1346457 45.3952403,13.076879 50.311907,13.076879 C56.6578372,13.076879 62.2033798,16.5064902 65.1762481,21.6509071 C68.6636512,9.18998626 80.0977597,0.0443563053 93.6471783,0.0443563053 C108.454349,0.0443563053 120.803186,11.0188836 122.861326,25.3089304 C130.293496,19.7646209 140.184,20.2788339 147.616171,27.2526054 L146.815783,26.5666832 C152.761519,31.3681389 154.819659,37.8844003 154.533806,43.3717782 C154.362295,46.6299089 153.276054,49.4879183 151.332256,51.8314859 C153.218884,52.460248 154.762488,53.5462916 156.248922,55.0324564 C158.307062,57.0902232 159.736326,59.6624316 160.136519,62.520441 L160.136519,62.520441 C160.136519,62.6347613 160.136519,62.7490817 160.19369,62.9205623 C160.19369,62.7490817 160.19369,62.8062419 160.19369,62.9205623 Z M169.398147,16.7922912 C165.053186,10.9047919 158.592915,6.56061765 151.503767,4.73149166 C149.902992,4.38853054 148.245047,5.47457409 147.902023,7.01789915 C147.273147,8.61838439 148.302217,10.6761511 150.017333,11.0191123 C157.163651,12.9053984 163.33807,17.9354949 166.596791,24.5660766 C169.283806,29.9962944 169.969853,36.3982354 168.483419,42.2857347 C168.083225,43.9433801 169.283806,45.7153459 170.998922,45.9439867 C172.542527,46.4012682 174.257643,45.4867052 174.772178,44.0005403 C177.116171,34.7977501 175.115202,24.4517563 169.398147,16.7922912 Z M148.988264,15.8777282 C146.52993,15.4204467 144.643302,18.4499366 145.729543,20.5648635 C146.129736,21.4794265 147.044465,22.1081886 148.016364,22.3368293 C151.73245,23.3083239 154.991171,25.8805323 156.706287,29.3101435 C158.249891,32.3398621 158.592915,35.8835651 157.735357,39.1416957 C157.277992,40.7993412 158.478574,42.6284672 160.19369,42.9142681 C161.737295,43.3715496 163.566752,42.4569866 164.024116,40.8565013 C165.624891,35.0261623 164.42431,28.5099009 160.879736,23.651285 C158.021209,19.7646209 153.733419,16.7922912 148.988264,15.8777282 Z" id="Shape" fill="#0071BC"></path>
                    <g id="Group" transform="translate(0.000000, 91.456300)" fill="#363636">
                        <polygon id="Shape" points="0.116170543 0.55856935 15.9524109 0.55856935 15.9524109 5.07422414 10.5783798 5.07422414 10.5783798 23.0796831 5.43303101 23.0796831 5.43303101 5.07422414 0.059 5.07422414"></polygon>
                        <polygon id="Shape" points="24.0706279 23.1368433 18.9252791 23.1368433 18.9252791 0.55856935 24.0706279 0.55856935 24.0706279 9.58987893 31.3312868 9.58987893 31.3312868 0.55856935 36.4766357 0.55856935 36.4766357 23.1368433 31.3312868 23.1368433 31.3312868 14.0483735 24.0706279 14.0483735 24.0706279 23.1368433"></polygon>
                        <polygon id="Shape" points="53.7421395 5.13138433 46.0241163 5.13138433 46.0241163 9.58987893 53.4562868 9.58987893 53.4562868 14.1055337 46.0241163 14.1055337 46.0241163 18.6211885 53.7993101 18.6211885 53.7993101 23.1368433 40.8215969 23.1368433 40.8215969 0.55856935 53.7421395 0.55856935"></polygon>
                        <polygon id="Shape" points="63.6326434 0.55856935 79.4688837 0.55856935 79.4688837 5.07422414 74.0948527 5.07422414 74.0948527 23.0796831 68.9495039 23.0796831 68.9495039 5.07422414 63.5754729 5.07422414"></polygon>
                        <polygon id="Shape" points="87.5871008 23.1368433 82.4417519 23.1368433 82.4417519 0.55856935 87.5871008 0.55856935 87.5871008 9.58987893 94.8477597 9.58987893 94.8477597 0.55856935 99.9931085 0.55856935 99.9931085 23.1368433 94.8477597 23.1368433 94.8477597 14.0483735 87.5871008 14.0483735 87.5871008 23.1368433"></polygon>
                        <polygon id="Shape" points="109.540589 23.1368433 104.39524 23.1368433 104.39524 0.55856935 109.540589 0.55856935"></polygon>
                        <polygon id="Shape" points="119.030899 23.1368433 113.88555 23.1368433 113.88555 0.55856935 119.030899 0.55856935 127.949504 14.505655 128.006674 14.505655 128.006674 0.55856935 133.152023 0.55856935 133.152023 23.1368433 128.006674 23.1368433 119.08807 9.18975762 119.030899 9.18975762"></polygon>
                        <path d="M157.964039,15.3630578 C156.706287,21.0790766 151.903961,23.5369646 147.501829,23.5369646 C141.441752,23.5369646 136.525085,18.2782274 136.525085,11.8762864 C136.525085,5.36002508 141.21307,0.215608226 147.501829,0.215608226 C151.503767,0.215608226 154.190783,1.70177309 156.191752,4.04534077 L152.81869,7.76075294 C151.503767,5.64582601 149.788651,4.90274358 147.787682,4.90274358 C144.643302,4.90274358 142.070628,8.04655388 142.070628,11.9334466 C142.070628,15.7631792 144.643302,18.8498293 147.787682,18.8498293 C150.246016,18.8498293 152.704349,17.249344 152.704349,14.505655 L147.559,14.505655 L147.559,10.5044419 L157.964039,10.5044419 L157.964039,15.3630578 L157.964039,15.3630578 Z" id="Shape"></path>
                        <path d="M176.087101,2.33053515 L173.971791,6.44606863 C173.971791,6.44606863 171.74214,4.90274358 169.455318,4.90274358 C167.683031,4.90274358 166.825473,5.64582601 166.825473,6.90335013 C166.825473,8.16087425 168.997953,9.07543725 171.513457,10.1614808 C174.028961,11.1903642 176.830318,13.3624513 176.830318,16.334781 C176.830318,21.7078386 172.714039,23.5941248 168.311907,23.5941248 C162.995047,23.5941248 159.850667,20.5646349 159.850667,20.5646349 L162.423341,16.2204607 C162.423341,16.2204607 165.45338,18.7355089 167.968884,18.7355089 C169.112295,18.7355089 171.227605,18.6211885 171.227605,16.5062616 C171.227605,14.9057763 168.826442,14.1055337 166.139426,12.7908494 C163.39524,11.4761651 161.851636,9.36123818 161.851636,7.01767051 C161.851636,2.84497684 165.567721,0.101287852 169.169465,0.101287852 C173.171403,0.158448039 176.087101,2.33053515 176.087101,2.33053515 Z" id="Shape"></path>
                    </g>
                </g>
            </g>
        </g>
    </g>
</svg>